<svg width="157" height="127" viewBox="0 0 157 127" fill="none" xmlns="http://www.w3.org/2000/svg">
<path d="M141 63.5C141 98.5701 112.57 127 77.4999 127C42.4298 127 13.9999 98.5701 13.9999 63.5C13.9999 28.4299 42.4298 0 77.4999 0C112.57 0 141 28.4299 141 63.5Z" fill="#E5E5E5"/>
<path d="M63.901 41H62.717L50.653 27.656V41H49.629V27.656L37.597 41H36.413L49.373 26.632L40.509 17H41.661L49.629 25.672V17H50.653V25.672L58.621 17H59.805L50.941 26.632L63.901 41Z" fill="black"/>
<path d="M67.228 26.6H68.22V39.56L78.556 26.6H79.484V41H78.492V28.072L68.124 41H67.228V26.6Z" fill="black"/>
<path d="M86.7545 41.416C85.0265 41.416 83.6185 40.6907 82.5305 39.24V37.48C82.8719 38.3973 83.4052 39.1333 84.1305 39.688C84.8772 40.2427 85.7732 40.52 86.8185 40.52C87.9919 40.52 88.9305 40.1573 89.6345 39.432C90.3599 38.7067 90.7225 37.7147 90.7225 36.456C90.7225 35.24 90.3279 34.2587 89.5385 33.512C88.7705 32.7653 87.8319 32.392 86.7225 32.392H85.9545V31.496H86.5945C87.2559 31.496 87.8212 31.2827 88.2905 30.856C88.7812 30.408 89.0265 29.864 89.0265 29.224C89.0265 28.6267 88.8452 28.136 88.4825 27.752C88.1199 27.3467 87.6079 27.144 86.9465 27.144C85.7945 27.144 84.9519 27.72 84.4185 28.872V27.304C85.1012 26.664 85.9545 26.344 86.9785 26.344C87.8532 26.344 88.5679 26.632 89.1225 27.208C89.6772 27.784 89.9545 28.4667 89.9545 29.256C89.9545 29.8533 89.7839 30.376 89.4425 30.824C89.1012 31.272 88.6532 31.6027 88.0985 31.816C89.1439 32.0507 90.0079 32.5733 90.6905 33.384C91.3945 34.1733 91.7465 35.1973 91.7465 36.456C91.7465 37.9067 91.2772 39.1013 90.3385 40.04C89.4212 40.9573 88.2265 41.416 86.7545 41.416Z" fill="black"/>
<path d="M95.4155 26.6H96.4395V34.696H106.2V26.6H107.224V41H106.2V35.592H96.4395V41H95.4155V26.6Z" fill="black"/>
<path d="M112.009 26.6H113.033V31.56H114.601C116.095 31.56 117.247 31.976 118.057 32.808C118.868 33.6187 119.273 34.7813 119.273 36.296C119.273 37.1493 119.06 37.9387 118.633 38.664C118.207 39.3893 117.631 39.9653 116.905 40.392C116.18 40.7973 115.38 41 114.505 41H112.009V26.6ZM114.537 40.136C115.583 40.136 116.468 39.7627 117.193 39.016C117.919 38.2693 118.281 37.3627 118.281 36.296C118.281 35.0587 117.951 34.1093 117.289 33.448C116.649 32.7653 115.732 32.424 114.537 32.424H113.033V40.136H114.537Z" fill="black"/>
<path d="M74.5249 56.6H78.1089C78.9836 56.6 79.6662 56.8667 80.1569 57.4C80.6476 57.912 80.8929 58.5627 80.8929 59.352C80.8929 60.568 80.3702 61.4107 79.3249 61.88C80.4556 62.072 81.2982 62.5307 81.8529 63.256C82.4076 63.9813 82.6849 65.048 82.6849 66.456C82.6849 67.288 82.4822 68.056 82.0769 68.76C81.6929 69.4427 81.1489 69.9867 80.4449 70.392C79.7622 70.7973 79.0049 71 78.1729 71H74.5249V56.6ZM77.9489 61.56C78.5676 61.56 79.0369 61.3787 79.3569 61.016C79.6982 60.632 79.8689 60.0773 79.8689 59.352C79.8689 58.7333 79.6982 58.264 79.3569 57.944C79.0156 57.624 78.5249 57.464 77.8849 57.464H75.5489V61.56H77.9489ZM78.2369 70.136C79.1969 70.136 80.0076 69.7733 80.6689 69.048C81.3302 68.3013 81.6609 67.3947 81.6609 66.328C81.6609 65.0693 81.3302 64.1093 80.6689 63.448C80.0289 62.7653 79.1116 62.424 77.9169 62.424H75.5489V70.136H78.2369Z" fill="black"/>
<path d="M15.4034 86.6V101H14.3794V88.808L7.9474 101.384L1.4834 88.36V101H0.587402V86.6H1.7394L8.0434 99.336L14.4434 86.6H15.4034Z" fill="black"/>
<path d="M20.2124 86.6H21.2044V99.56L31.5404 86.6H32.4684V101H31.4764V88.072L21.1084 101H20.2124V86.6Z" fill="black"/>
<path d="M37.2749 86.6H38.2989V94.696H48.0589V86.6H49.0829V101H48.0589V95.592H38.2989V101H37.2749V86.6Z" fill="black"/>
<path d="M53.8687 86.6H54.8607V99.56L65.1967 86.6H66.1247V101H65.1327V88.072L54.7647 101H53.8687V86.6Z" fill="black"/>
<path d="M77.3312 101.352C75.9658 101.352 74.6965 101.011 73.5232 100.328C72.3498 99.6453 71.4218 98.728 70.7392 97.576C70.0565 96.4027 69.7151 95.144 69.7151 93.8C69.7151 92.456 70.0565 91.208 70.7392 90.056C71.4218 88.8827 72.3498 87.9547 73.5232 87.272C74.6965 86.5893 75.9658 86.248 77.3312 86.248C78.7178 86.248 80.0298 86.6213 81.2672 87.368C82.5045 88.0933 83.3685 89.0427 83.8592 90.216V86.6H84.8832V101H83.8592V97.416C83.2832 98.6107 82.3872 99.5707 81.1712 100.296C79.9765 101 78.6965 101.352 77.3312 101.352ZM77.3951 100.456C78.5685 100.456 79.6565 100.157 80.6591 99.56C81.6618 98.9413 82.4512 98.1307 83.0272 97.128C83.6245 96.104 83.9232 94.9947 83.9232 93.8C83.9232 92.6267 83.6245 91.528 83.0272 90.504C82.4298 89.48 81.6298 88.6693 80.6272 88.072C79.6245 87.4533 78.5365 87.144 77.3632 87.144C76.1898 87.144 75.0912 87.4533 74.0672 88.072C73.0645 88.6907 72.2538 89.512 71.6352 90.536C71.0378 91.56 70.7392 92.6587 70.7392 93.832C70.7392 95.0053 71.0378 96.104 71.6352 97.128C72.2538 98.1307 73.0751 98.9413 74.0992 99.56C75.1232 100.157 76.2218 100.456 77.3951 100.456Z" fill="black"/>
<path d="M92.8902 87.528H87.3862V86.632H99.4182V87.528H93.9142V101H92.8902V87.528Z" fill="black"/>
<path d="M114.434 101.352C113.346 101.352 112.301 101.096 111.298 100.584C110.317 100.072 109.463 99.3787 108.738 98.504C108.013 97.6293 107.479 96.6587 107.138 95.592H103.33V101H102.306V86.6H103.33V94.696H107.01C106.967 94.5253 106.946 94.2267 106.946 93.8C106.946 92.4347 107.287 91.176 107.97 90.024C108.653 88.872 109.57 87.9547 110.722 87.272C111.895 86.5893 113.175 86.248 114.562 86.248C115.927 86.248 117.197 86.5893 118.37 87.272C119.543 87.9547 120.471 88.872 121.154 90.024C121.837 91.1547 122.178 92.392 122.178 93.736C122.178 95.08 121.837 96.3387 121.154 97.512C120.471 98.664 119.554 99.592 118.402 100.296C117.271 101 116.034 101.352 114.69 101.352H114.434ZM114.562 100.456C115.735 100.456 116.823 100.157 117.826 99.56C118.85 98.9413 119.661 98.1307 120.258 97.128C120.855 96.104 121.154 94.9947 121.154 93.8C121.154 91.9867 120.503 90.4293 119.202 89.128C117.879 87.8053 116.333 87.144 114.562 87.144C113.389 87.144 112.29 87.4533 111.266 88.072C110.263 88.6693 109.463 89.48 108.866 90.504C108.269 91.528 107.97 92.6267 107.97 93.8C107.97 94.9947 108.269 96.104 108.866 97.128C109.463 98.1307 110.263 98.9413 111.266 99.56C112.29 100.157 113.389 100.456 114.562 100.456Z" fill="black"/>
<path d="M125.485 86.6H126.509V90.12C127.085 88.968 127.981 88.04 129.197 87.336C130.413 86.6107 131.693 86.248 133.037 86.248C134.423 86.248 135.693 86.5893 136.845 87.272C138.018 87.9547 138.946 88.872 139.629 90.024C140.311 91.176 140.653 92.4347 140.653 93.8C140.653 95.1653 140.311 96.424 139.629 97.576C138.946 98.728 138.018 99.6453 136.845 100.328C135.693 101.011 134.423 101.352 133.037 101.352C131.735 101.352 130.477 101 129.261 100.296C128.066 99.592 127.149 98.664 126.509 97.512V107.4H125.485V86.6ZM133.101 100.456C134.274 100.456 135.362 100.157 136.365 99.56C137.367 98.9413 138.157 98.1307 138.733 97.128C139.33 96.104 139.629 94.9947 139.629 93.8C139.629 92.6267 139.33 91.528 138.733 90.504C138.135 89.48 137.335 88.6693 136.333 88.072C135.33 87.4533 134.242 87.144 133.069 87.144C131.895 87.144 130.797 87.4533 129.773 88.072C128.77 88.6907 127.959 89.512 127.341 90.536C126.743 91.56 126.445 92.6587 126.445 93.832C126.445 95.0053 126.743 96.104 127.341 97.128C127.959 98.1307 128.781 98.9413 129.805 99.56C130.829 100.157 131.927 100.456 133.101 100.456Z" fill="black"/>
<path d="M150.868 100.488C151.977 100.488 153.033 100.2 154.036 99.624C155.038 99.048 155.87 98.2587 156.532 97.256V98.888C155.742 99.7627 154.878 100.403 153.94 100.808C153.001 101.192 151.934 101.384 150.74 101.384C149.417 101.384 148.169 101.032 146.996 100.328C145.844 99.624 144.916 98.6853 144.212 97.512C143.529 96.3387 143.188 95.0907 143.188 93.768C143.188 92.3387 143.529 91.0587 144.212 89.928C144.894 88.776 145.822 87.88 146.996 87.24C148.19 86.6 149.513 86.28 150.964 86.28C153.182 86.28 155.07 87.1547 156.628 88.904L146.58 98.824C147.284 99.4 147.966 99.8267 148.628 100.104C149.289 100.36 150.036 100.488 150.868 100.488ZM144.212 93.672C144.212 95.4427 144.798 96.9573 145.972 98.216L155.348 88.904C154.644 88.2853 153.961 87.848 153.3 87.592C152.638 87.3147 151.849 87.176 150.932 87.176C149.63 87.176 148.468 87.464 147.444 88.04C146.441 88.5947 145.652 89.3627 145.076 90.344C144.5 91.3253 144.212 92.4347 144.212 93.672Z" fill="black"/>
</svg>
