<svg width="36" height="37" viewBox="0 0 36 37" fill="none" xmlns="http://www.w3.org/2000/svg">
<rect y="0.242676" width="36" height="36" rx="18" fill="black"/>
<path d="M18.8842 24.5426C12.1193 24.5426 8.26075 19.8129 8.09998 11.9426H11.4886C11.5999 17.7192 14.0981 20.1661 16.0769 20.6706V11.9426H19.2676V16.9246C21.2217 16.7102 23.2746 14.4399 23.9672 11.9426H27.1579C26.897 13.2378 26.3767 14.4641 25.6298 15.5449C24.8829 16.6256 23.9253 17.5376 22.817 18.2237C24.0542 18.8506 25.1469 19.738 26.023 20.8272C26.8992 21.9164 27.5389 23.1828 27.9 24.5426H24.3877C24.0636 23.3615 23.4048 22.3042 22.494 21.5032C21.5832 20.7022 20.4609 20.1932 19.2676 20.0399V24.5426H18.8842Z" fill="white"/>
</svg>
