<svg width="36" height="36" viewBox="0 0 36 36" fill="none" xmlns="http://www.w3.org/2000/svg">
<rect width="36" height="36" rx="18" fill="black"/>
<path d="M27.54 13.4099C26.91 13.6799 26.19 13.86 25.47 13.95C26.19 13.5 26.82 12.78 27.09 11.97C26.37 12.42 25.65 12.69 24.75 12.87C24.12 12.15 23.13 11.7 22.14 11.7C20.16 11.7 18.54 13.32 18.54 15.3C18.54 15.57 18.54 15.8399 18.63 16.1099C15.66 15.9299 12.96 14.4899 11.16 12.3299C10.89 12.8699 10.71 13.4999 10.71 14.1299C10.71 15.3899 11.34 16.47 12.33 17.1C11.7 17.1 11.16 16.92 10.71 16.65C10.71 18.36 11.97 19.8899 13.59 20.1599C13.32 20.2499 12.96 20.25 12.6 20.25C12.33 20.25 12.15 20.2499 11.88 20.1599C12.33 21.5999 13.68 22.6799 15.3 22.6799C14.04 23.6699 12.51 24.2099 10.8 24.2099C10.53 24.2099 10.26 24.21 9.90002 24.12C11.52 25.11 13.41 25.74 15.48 25.74C22.14 25.74 25.74 20.2499 25.74 15.4799V15.0299C26.46 14.7599 27.09 14.1299 27.54 13.4099Z" fill="white"/>
</svg>
