<svg width="36" height="37" viewBox="0 0 36 37" fill="none" xmlns="http://www.w3.org/2000/svg">
<rect y="0.210938" width="36" height="36" rx="18" fill="black"/>
<path d="M18 10.8374C20.3855 10.8374 20.7108 10.8374 21.6867 10.8374C22.5542 10.8374 22.988 11.0543 23.3133 11.1627C23.747 11.3796 24.0723 11.488 24.3976 11.8133C24.7229 12.1386 24.9398 12.464 25.0482 12.8977C25.1566 13.223 25.2651 13.6567 25.3735 14.5242C25.3735 15.5001 25.3735 15.717 25.3735 18.2109C25.3735 20.7049 25.3735 20.9218 25.3735 21.8977C25.3735 22.7652 25.1566 23.1989 25.0482 23.5242C24.8313 23.9579 24.7229 24.2832 24.3976 24.6085C24.0723 24.9338 23.747 25.1507 23.3133 25.2591C22.988 25.3676 22.5542 25.476 21.6867 25.5844C20.7108 25.5844 20.494 25.5844 18 25.5844C15.506 25.5844 15.2892 25.5844 14.3133 25.5844C13.4458 25.5844 13.012 25.3676 12.6867 25.2591C12.253 25.0423 11.9277 24.9338 11.6024 24.6085C11.2771 24.2832 11.0602 23.9579 10.9518 23.5242C10.8434 23.1989 10.7349 22.7652 10.6265 21.8977C10.6265 20.9218 10.6265 20.7049 10.6265 18.2109C10.6265 15.717 10.6265 15.5001 10.6265 14.5242C10.6265 13.6567 10.8434 13.223 10.9518 12.8977C11.1687 12.464 11.2771 12.1386 11.6024 11.8133C11.9277 11.488 12.253 11.2712 12.6867 11.1627C13.012 11.0543 13.4458 10.9459 14.3133 10.8374C15.2892 10.8374 15.6145 10.8374 18 10.8374ZM18 9.21094C15.506 9.21094 15.2892 9.21094 14.3133 9.21094C13.3374 9.21094 12.6867 9.42781 12.1446 9.64467C11.6024 9.86154 11.0602 10.1868 10.5181 10.729C9.9759 11.2712 9.75904 11.7049 9.43374 12.3555C9.21687 12.8977 9.10843 13.5483 9 14.5242C9 15.5001 9 15.8254 9 18.2109C9 20.7049 9 20.9218 9 21.8977C9 22.8736 9.21687 23.5242 9.43374 24.0664C9.6506 24.6085 9.9759 25.1507 10.5181 25.6929C11.0602 26.235 11.494 26.4519 12.1446 26.7772C12.6867 26.9941 13.3374 27.1025 14.3133 27.2109C15.2892 27.2109 15.6145 27.2109 18 27.2109C20.3855 27.2109 20.7108 27.2109 21.6867 27.2109C22.6627 27.2109 23.3133 26.9941 23.8554 26.7772C24.3976 26.5603 24.9398 26.235 25.4819 25.6929C26.0241 25.1507 26.241 24.717 26.5663 24.0664C26.7831 23.5242 26.8916 22.8736 27 21.8977C27 20.9218 27 20.5965 27 18.2109C27 15.8254 27 15.5001 27 14.5242C27 13.5483 26.7831 12.8977 26.5663 12.3555C26.3494 11.8133 26.0241 11.2712 25.4819 10.729C24.9398 10.1868 24.506 9.96997 23.8554 9.64467C23.3133 9.42781 22.6627 9.31937 21.6867 9.21094C20.7108 9.21094 20.494 9.21094 18 9.21094Z" fill="white"/>
<path d="M18 13.5483C15.3976 13.5483 13.3373 15.6085 13.3373 18.2109C13.3373 20.8133 15.3976 22.8736 18 22.8736C20.6024 22.8736 22.6627 20.8133 22.6627 18.2109C22.6627 15.6085 20.6024 13.5483 18 13.5483ZM18 21.2471C16.3735 21.2471 14.9639 19.9459 14.9639 18.2109C14.9639 16.5844 16.2651 15.1748 18 15.1748C19.6265 15.1748 21.0361 16.476 21.0361 18.2109C21.0361 19.8374 19.6265 21.2471 18 21.2471Z" fill="white"/>
<path d="M22.7711 14.5242C23.3699 14.5242 23.8554 14.0387 23.8554 13.4399C23.8554 12.841 23.3699 12.3555 22.7711 12.3555C22.1722 12.3555 21.6867 12.841 21.6867 13.4399C21.6867 14.0387 22.1722 14.5242 22.7711 14.5242Z" fill="white"/>
</svg>
